{
	"asset":{
		"generator":"Khronos glTF Blender I/O v3.6.27",
		"version":"2.0"
	},
	"scene":0,
	"scenes":[
		{
			"name":"Scene",
			"nodes":[
				0,
				1
			]
		}
	],
	"nodes":[
		{
			"mesh":0,
			"name":"Cube.001",
			"rotation":[
				0.029038019478321075,
				0.5481997132301331,
				0.8302558064460754,
				0.09648411720991135
			],
			"translation":[
				-0.30391696095466614,
				1.1195498704910278,
				-0.11300714313983917
			]
		},
		{
			"mesh":1,
			"name":"Sphere",
			"rotation":[
				-0.16592925786972046,
				0.36309728026390076,
				-0.019213922321796417,
				0.9166562557220459
			],
			"scale":[
				0.38142016530036926,
				0.3814201056957245,
				0.38142016530036926
			],
			"translation":[
				-0.22726786136627197,
				1.5530856847763062,
				-0.36675524711608887
			]
		}
	],
	"meshes":[
		{
			"name":"Cube.001",
			"primitives":[
				{
					"attributes":{
						"POSITION":0,
						"NORMAL":1,
						"TEXCOORD_0":2
					},
					"indices":3
				}
			]
		},
		{
			"name":"Sphere",
			"primitives":[
				{
					"attributes":{
						"POSITION":4,
						"NORMAL":5,
						"TEXCOORD_0":6
					},
					"indices":7
				}
			]
		}
	],
	"accessors":[
		{
			"bufferView":0,
			"componentType":5126,
			"count":1920,
			"max":[
				1.8378140926361084,
				0.052031174302101135,
				2.378499746322632
			],
			"min":[
				-1.163995385169983,
				-2.475691080093384,
				-0.16149736940860748
			],
			"type":"VEC3"
		},
		{
			"bufferView":1,
			"componentType":5126,
			"count":1920,
			"type":"VEC3"
		},
		{
			"bufferView":2,
			"componentType":5126,
			"count":1920,
			"type":"VEC2"
		},
		{
			"bufferView":3,
			"componentType":5123,
			"count":2880,
			"type":"SCALAR"
		},
		{
			"bufferView":4,
			"componentType":5126,
			"count":1920,
			"max":[
				1.194412112236023,
				0.9714134335517883,
				1.1492844820022583
			],
			"min":[
				-1.1134858131408691,
				-4.249568462371826,
				-1.1827788352966309
			],
			"type":"VEC3"
		},
		{
			"bufferView":5,
			"componentType":5126,
			"count":1920,
			"type":"VEC3"
		},
		{
			"bufferView":6,
			"componentType":5126,
			"count":1920,
			"type":"VEC2"
		},
		{
			"bufferView":7,
			"componentType":5123,
			"count":2874,
			"type":"SCALAR"
		}
	],
	"bufferViews":[
		{
			"buffer":0,
			"byteLength":23040,
			"byteOffset":0,
			"target":34962
		},
		{
			"buffer":0,
			"byteLength":23040,
			"byteOffset":23040,
			"target":34962
		},
		{
			"buffer":0,
			"byteLength":15360,
			"byteOffset":46080,
			"target":34962
		},
		{
			"buffer":0,
			"byteLength":5760,
			"byteOffset":61440,
			"target":34963
		},
		{
			"buffer":0,
			"byteLength":23040,
			"byteOffset":67200,
			"target":34962
		},
		{
			"buffer":0,
			"byteLength":23040,
			"byteOffset":90240,
			"target":34962
		},
		{
			"buffer":0,
			"byteLength":15360,
			"byteOffset":113280,
			"target":34962
		},
		{
			"buffer":0,
			"byteLength":5748,
			"byteOffset":128640,
			"target":34963
		}
	],
	"buffers":[
		{
			"byteLength":134388,
			"uri":"data:application/octet-stream;base64,"
		}
	]
}
